<svg xmlns="http://www.w3.org/2000/svg" width="990" height="990" viewBox="0 0 990 990" fill="none">
<path d="M990 495C990 768.381 768.381 990 495 990C221.619 990 0 768.381 0 495C0 221.619 221.619 0 495 0C768.381 0 990 221.619 990 495ZM70.7336 495C70.7336 729.316 260.684 919.266 495 919.266C729.316 919.266 919.266 729.316 919.266 495C919.266 260.684 729.316 70.7336 495 70.7336C260.684 70.7336 70.7336 260.684 70.7336 495Z" fill="#25AFE1"/>
<path d="M713.668 246.476C705.751 237.48 694.586 231.995 682.627 231.226C670.667 230.457 658.892 234.468 649.888 242.377C612.42 275.459 546.907 375.631 505.728 483.955C496.215 508.988 487.872 534.666 481.275 560.368C450.141 511.928 424.11 482.843 392.749 447.742C371.171 423.617 346.855 396.409 315.536 356.204C311.91 351.51 307.394 347.576 302.247 344.628C297.1 341.679 291.422 339.774 285.539 339.021C279.655 338.268 273.68 338.682 267.957 340.239C262.233 341.796 256.872 344.465 252.181 348.095C242.705 355.428 236.53 366.224 235.012 378.109C233.495 389.995 236.76 401.996 244.089 411.474C276.717 453.371 302.467 482.168 325.306 507.727C372.772 560.792 406.739 598.816 471.977 729.202C479.739 748.444 500.069 760.444 521.385 756.888C533.223 754.912 543.792 748.316 550.77 738.551C557.748 728.785 560.562 716.649 558.596 704.809C549.626 650.925 565.277 581.898 590.298 516.087C626.541 420.791 680.21 336.161 709.563 310.232C718.561 302.322 724.049 291.161 724.819 279.205C725.589 267.248 721.578 255.475 713.668 246.476Z" fill="#1F4EAD"/>
<path d="M417.507 184.358C404.55 187.535 408.074 203.483 418.726 198.19C418.915 198.19 480.573 177.47 520.982 241.678C525.947 249.567 532.583 239.358 529.891 233.755C521.383 216.044 484.683 167.879 417.505 184.356L417.507 184.358ZM388.206 317.161C380.563 268.054 401.139 235.503 426.74 228.904C487.676 213.196 517.824 288.316 517.824 327.832C517.824 366.39 490.308 383.369 470.695 381.648C437.742 378.754 422.225 344.284 417.437 317.446C416.267 310.905 407.187 260.561 447.878 260.257C475.589 260.053 491.168 308.013 489.35 326.494C488.162 338.57 482.494 351.183 469.669 350.057C452.571 348.557 446.299 323.982 445.436 314.272C445.246 312.731 441.746 293.688 451.057 295.299C457.479 296.411 459.05 308.365 459.27 309.147C460.165 312.014 460.773 315.617 461.142 318.946C461.533 321.768 460.895 325.007 462.029 328.149C463.141 331.798 466.337 333.852 469.105 334.096C471.368 334.294 475.687 331.98 475.833 328.442C476.126 309.624 468.247 276.139 446.044 278.109C433.558 279.216 426.973 293.508 430.53 316.553C433.995 338.996 445.68 363.672 468.779 365.698C494.174 367.928 504.402 344.772 504.402 327.324C504.402 277.572 470.754 231.911 430.989 245.579C408.153 253.428 394.294 278.288 402.094 318.832C410.179 360.864 435.047 399.43 471.129 398.385C537.187 396.47 532.599 326.109 532.599 326.109C532.599 261.456 480.215 186.654 413.036 215.781C385.341 227.792 363.68 268.288 371.857 317.696C392.601 443.032 483.18 428.634 487.41 427.983L487.727 428.018C502.18 425.926 499.226 409.81 488.65 411.62C428.677 421.889 396.299 369.166 388.206 317.161Z" fill="#1F4EAD"/>
<path d="M842.325 193.955C857.085 181.162 858.765 158.724 844.951 144.915C782.001 81.9881 703.07 37.035 616.356 15.1066C518.183 -9.71952 414.758 -3.83916 320.032 31.9545C225.305 67.7482 143.836 131.733 86.6123 215.278C29.3889 298.823 -0.835025 397.908 0.0175444 499.168C0.870113 600.427 32.7582 698.99 91.3802 781.559C150.002 864.128 232.538 926.732 327.853 960.926C423.169 995.12 526.679 999.258 624.42 972.782C710.752 949.397 788.915 903.121 850.796 839.143C864.376 825.103 862.318 802.696 847.345 790.154C832.372 777.611 810.165 779.701 796.419 793.578C743.952 846.545 678.287 884.908 605.926 904.509C522.152 927.201 433.433 923.654 351.738 894.347C270.043 865.039 199.301 811.381 149.056 740.611C98.8108 669.84 71.4794 585.362 70.7486 498.572C70.0179 411.782 95.923 326.856 144.969 255.249C194.016 183.642 263.844 128.801 345.034 98.1219C426.224 67.4431 514.871 62.403 599.015 83.6816C671.696 102.061 737.998 139.313 791.349 191.389C805.326 205.032 827.565 206.749 842.325 193.955Z" fill="#1F4EAD"/>
</svg>