<svg width="197" height="40" viewBox="0 0 197 40" fill="none" xmlns="http://www.w3.org/2000/svg">
<g clip-path="url(#clip0_2006_2)">
<path d="M39.9067 20.2268C39.9067 31.1075 31.0852 39.9282 20.2033 39.9282C9.32146 39.9282 0.5 31.1075 0.5 20.2268C0.5 9.34603 9.32146 0.525391 20.2033 0.525391C31.0852 0.525391 39.9067 9.34603 39.9067 20.2268ZM3.84958 20.2268C3.84958 29.2579 11.1715 36.5789 20.2033 36.5789C29.2353 36.5789 36.557 29.2579 36.557 20.2268C36.557 11.1958 29.2353 3.87463 20.2033 3.87463C11.1715 3.87463 3.84958 11.1958 3.84958 20.2268Z" fill="#25AFE1"/>
<path d="M32.4029 6.95859C33.029 6.27763 32.9882 5.21189 32.2565 4.6461C29.631 2.61596 26.5272 1.27607 23.2296 0.763574C19.3789 0.165086 15.4372 0.721791 11.9029 2.3633C8.36863 4.0048 5.40053 6.65737 3.37393 9.98556C1.34737 13.3137 0.353313 17.1682 0.517501 21.0614C0.681695 24.9543 1.99675 28.7113 4.29636 31.8571C6.59599 35.003 9.77694 37.3962 13.4369 38.7344C17.0968 40.0726 21.0714 40.2954 24.8581 39.3749C28.1006 38.5866 31.0808 36.9902 33.526 34.7463C34.2075 34.1209 34.1583 33.0555 33.4772 32.4298C32.7961 31.8037 31.742 31.856 31.0496 32.4694C29.0608 34.2318 26.6653 35.4887 24.0668 36.1205C20.9237 36.8846 17.6249 36.6995 14.5872 35.5889C11.5494 34.4782 8.90925 32.4918 7.00054 29.8808C5.09186 27.2697 4.00037 24.1514 3.86409 20.9202C3.72781 17.6888 4.55288 14.4897 6.23494 11.7273C7.91701 8.96493 10.3806 6.76329 13.3139 5.40084C16.2474 4.03839 19.5192 3.57632 22.7151 4.07307C25.3577 4.48378 27.8505 5.5347 29.9808 7.12338C30.7222 7.67633 31.777 7.63957 32.4029 6.95859Z" fill="#1F4EAD"/>
<path d="M29.7771 12.5806C29.4726 12.2323 29.0437 12.0202 28.584 11.9904C28.1244 11.9607 27.6717 12.1158 27.3258 12.4219C25.8859 13.7022 23.368 17.579 21.7854 21.7714C21.4199 22.7402 21.0992 23.734 20.8455 24.7287C19.6491 22.854 18.6486 21.7284 17.4435 20.3698C16.6141 19.4362 15.6797 18.3833 14.4759 16.8273C14.3366 16.6456 14.163 16.4932 13.9652 16.3791C13.7674 16.265 13.5493 16.1914 13.3229 16.1622C13.0968 16.133 12.8673 16.1491 12.6474 16.2093C12.4273 16.2697 12.2214 16.3729 12.0411 16.5134C11.6768 16.7972 11.4394 17.215 11.3811 17.6749C11.3229 18.135 11.4483 18.5993 11.73 18.9663C12.984 20.5877 13.9736 21.7023 14.8514 22.6914C16.6757 24.7452 17.9809 26.2168 20.4882 31.263C20.7866 32.0077 21.568 32.472 22.3871 32.3345C22.8421 32.258 23.2483 32.0028 23.5164 31.6247C23.7846 31.2468 23.8928 30.7771 23.8172 30.3189C23.4725 28.2335 24.074 25.5619 25.0356 23.015C26.4285 19.3269 28.4912 16.0516 29.6192 15.048C29.9651 14.7419 30.176 14.3099 30.2054 13.8472C30.2351 13.3844 30.081 12.9288 29.7771 12.5806Z" fill="#1F4EAD"/>
<path d="M18.4036 10.1709C17.9056 10.2939 18.0411 10.911 18.4505 10.7062C18.4577 10.7062 20.8274 9.90428 22.3804 12.3893C22.5712 12.6945 22.8262 12.2994 22.7227 12.0827C22.3958 11.3972 20.9854 9.53325 18.4036 10.1709ZM17.2776 15.3106C16.9837 13.41 17.7747 12.1503 18.7584 11.895C21.1004 11.2869 22.259 14.1942 22.259 15.7236C22.259 17.2158 21.2015 17.8731 20.4478 17.8065C19.1813 17.6944 18.5849 16.3605 18.4009 15.3216C18.3559 15.0685 18.007 13.1201 19.5709 13.1083C20.6358 13.1004 21.2345 14.9566 21.1647 15.6718C21.1191 16.1392 20.9012 16.6273 20.4083 16.5837C19.7512 16.5258 19.5102 15.5746 19.477 15.1988C19.4697 15.1391 19.3351 14.4021 19.6931 14.4646C19.9398 14.5075 20.0002 14.9701 20.0087 15.0004C20.043 15.1115 20.0665 15.2509 20.0806 15.3797C20.0956 15.489 20.071 15.6143 20.1147 15.736C20.1575 15.8771 20.2803 15.9566 20.3866 15.966C20.4736 15.9737 20.6396 15.8842 20.6452 15.7472C20.6564 15.0189 20.3537 13.723 19.5004 13.7992C19.0205 13.842 18.7674 14.3952 18.9041 15.2871C19.0372 16.1556 19.4864 17.1106 20.3741 17.189C21.3501 17.2754 21.7431 16.3793 21.7431 15.7039C21.7431 13.7784 20.45 12.0112 18.9218 12.5402C18.0441 12.8441 17.5116 13.8062 17.8113 15.3753C18.1219 17.002 19.0777 18.4946 20.4645 18.4541C23.0032 18.38 22.8269 15.657 22.8269 15.657C22.8269 13.1548 20.8137 10.2598 18.2318 11.3871C17.1674 11.8519 16.3349 13.4192 16.6492 15.3313C17.4464 20.1821 20.9275 19.6249 21.0902 19.5995L21.1023 19.6011C21.6578 19.5201 21.5442 18.8963 21.1378 18.9663C18.8329 19.3639 17.5886 17.3233 17.2776 15.3106Z" fill="#1F4EAD"/>
<path d="M57.7061 9.24552C55.0851 9.24552 52.9091 10.1833 51.1777 12.0588C49.4465 13.9344 48.5808 16.3389 48.5808 19.2724C48.5808 22.206 49.4465 24.6105 51.1777 26.486C52.9091 28.3616 55.0851 29.2994 57.7061 29.2994C59.1969 29.2994 60.4713 29.143 61.5293 28.8304C62.5873 28.5179 63.8737 27.9528 65.3886 27.1353L65.7492 27.4959V31.3912C63.1283 32.5695 60.4473 33.1586 57.7061 33.1586C53.931 33.1586 50.7209 31.8602 48.0759 29.2633C45.455 26.6664 44.1445 23.3361 44.1445 19.2724C44.1445 15.2088 45.455 11.8785 48.0759 9.28159C50.7209 6.68468 53.931 5.38623 57.7061 5.38623C60.5194 5.38623 63.2004 5.97534 65.7492 7.15357V11.0489L65.3886 11.4096C63.8737 10.5921 62.5873 10.027 61.5293 9.71439C60.4713 9.40178 59.1969 9.24552 57.7061 9.24552ZM81.6972 19.4167C82.4907 19.9217 83.3563 20.9195 84.2946 22.4103C85.256 23.8771 86.3146 25.6805 87.4682 27.8205C88.6226 29.9606 89.5004 31.4995 90.1017 32.4372V32.7979H85.485C84.9557 31.9563 84.1139 30.4174 82.9602 28.1812C81.8297 25.945 80.8078 24.1536 79.894 22.8071C79.0046 21.4606 78.175 20.7152 77.4053 20.5709H74.7365V32.4372L74.3757 32.7979H70.8773L70.5166 32.4372V6.10759L70.8773 5.74691H78.0548C80.7236 5.74691 82.8515 6.4322 84.4387 7.80276C86.0258 9.14931 86.8194 10.9407 86.8194 13.1769C86.8194 14.7158 86.3621 16.0263 85.4483 17.1084C84.5589 18.1663 83.3088 18.9358 81.6972 19.4167ZM74.7365 16.928H77.9101C79.3049 16.928 80.3988 16.5914 81.1924 15.9181C81.9859 15.2208 82.3827 14.307 82.3827 13.1769C82.3827 12.0227 81.9859 11.109 81.1924 10.4357C80.3988 9.73844 79.3049 9.38976 77.9101 9.38976H74.7365V16.928ZM108.284 29.5158V32.4372L107.924 32.7979H93.208L92.8479 32.4372V6.10759L93.208 5.74691H107.203L107.564 6.10759V9.02912L107.203 9.38976H97.0678V17.0001H105.76L106.12 17.3608V20.2823L105.76 20.643H97.0678V29.1551H107.924L108.284 29.5158ZM112.686 5.74691H121.523C125.298 5.74691 128.496 6.99727 131.117 9.49799C133.762 11.9987 135.084 15.2569 135.084 19.2724C135.084 23.288 133.762 26.5461 131.117 29.0468C128.496 31.5476 125.298 32.7979 121.523 32.7979H112.686L112.326 32.4372V6.10759L112.686 5.74691ZM116.546 29.1551H121.523C124.168 29.1551 126.344 28.2414 128.052 26.4139C129.783 24.5624 130.648 22.1819 130.648 19.2724C130.648 16.3629 129.783 13.9945 128.052 12.167C126.344 10.3155 124.168 9.38976 121.523 9.38976H116.546V29.1551ZM154.568 29.5158V32.4372L154.207 32.7979H139.491L139.13 32.4372V6.10759L139.491 5.74691H153.485L153.846 6.10759V9.02912L153.485 9.38976H143.35V17.0001H152.043L152.403 17.3608V20.2823L152.043 20.643H143.35V29.1551H154.207L154.568 29.5158ZM171.629 18.515C175.019 19.6211 176.715 21.7971 176.715 25.0433C176.715 27.6883 175.837 29.648 174.081 30.9224C172.35 32.1727 170.042 32.7979 167.157 32.7979H158.969L158.608 32.4372V6.10759L158.969 5.74691H166.146C168.768 5.74691 170.883 6.39614 172.494 7.69459C174.106 8.99304 174.911 10.7483 174.911 12.9605C174.911 15.5814 173.817 17.4329 171.629 18.515ZM170.511 13.1048C170.511 11.9746 170.114 11.073 169.321 10.3997C168.527 9.72641 167.445 9.38976 166.074 9.38976H162.828V17.0001H166.074C167.469 17.0001 168.551 16.6515 169.321 15.9542C170.114 15.2569 170.511 14.307 170.511 13.1048ZM162.828 29.1551H167.012C170.547 29.1551 172.314 27.7604 172.314 24.9712C172.314 23.5044 171.809 22.4224 170.799 21.7251C169.813 21.0037 168.455 20.643 166.724 20.643H162.828V29.1551ZM195.407 29.5158V32.4372L195.046 32.7979H181.124L180.764 32.4372V6.10759L181.124 5.74691H184.623L184.983 6.10759V29.1551H195.046L195.407 29.5158Z" fill="black"/>
</g>
<defs>
<clipPath id="clip0_2006_2">
<rect width="195.81" height="39.4746" fill="white" transform="translate(0.5 0.525391)"/>
</clipPath>
</defs>
</svg>
