<svg width="693" height="693" viewBox="0 0 693 693" fill="none" xmlns="http://www.w3.org/2000/svg">
<path d="M692.165 346.049C692.165 537.164 537.219 692.097 346.082 692.097C154.946 692.097 0 537.164 0 346.049C0 154.931 154.946 0 346.082 0C537.219 0 692.165 154.931 692.165 346.049ZM58.8342 346.049C58.8342 504.676 187.44 633.268 346.082 633.268C504.726 633.268 633.33 504.676 633.33 346.049C633.33 187.422 504.726 58.8282 346.082 58.8282C187.44 58.8282 58.8342 187.422 58.8342 346.049Z" fill="#25AFE1"/>
<path d="M560.363 112.998C571.36 101.037 570.644 82.3179 557.791 72.3798C511.677 36.7212 457.158 13.1863 399.239 4.18453C331.6 -6.32767 262.367 3.45063 200.288 32.2832C138.21 61.1157 86.0759 107.707 50.4797 166.166C14.8837 224.624 -2.5765 292.327 0.307399 360.708C3.1914 429.087 26.2898 495.076 66.6818 550.333C107.074 605.587 162.946 647.624 227.232 671.13C291.518 694.633 361.329 698.548 427.842 682.38C484.795 668.533 537.141 640.493 580.09 601.08C592.061 590.095 591.196 571.382 579.233 560.39C567.27 549.394 548.755 550.312 536.593 561.087C501.66 592.043 459.585 614.12 413.943 625.217C358.736 638.638 300.793 635.386 247.438 615.88C194.078 596.371 147.706 561.48 114.18 515.618C80.6549 469.755 61.4827 414.984 59.0892 358.229C56.6954 301.471 71.1875 245.281 100.732 196.759C130.277 148.239 173.549 109.567 225.072 85.6369C276.599 61.7056 334.065 53.5895 390.2 62.3146C436.617 69.5286 480.401 87.9879 517.82 115.893C530.843 125.605 549.371 124.959 560.363 112.998Z" fill="#1F4EAD"/>
<path d="M514.282 211.742C508.934 205.625 501.399 201.899 493.325 201.376C485.252 200.853 477.302 203.578 471.226 208.954C445.934 231.444 401.709 299.539 373.91 373.176C367.49 390.193 361.857 407.648 357.402 425.12C336.387 392.191 318.814 372.421 297.645 348.558C283.079 332.159 266.666 313.665 245.522 286.335C243.074 283.144 240.026 280.467 236.551 278.462C233.077 276.458 229.245 275.165 225.271 274.652C221.299 274.14 217.268 274.421 213.405 275.479C209.54 276.54 205.922 278.353 202.754 280.82C196.357 285.806 192.188 293.145 191.163 301.223C190.141 309.305 192.343 317.46 197.291 323.905C219.317 352.385 236.698 371.963 252.117 389.336C284.161 425.41 307.087 451.258 351.125 539.892C356.367 552.973 370.091 561.128 384.479 558.712C392.471 557.371 399.605 552.887 404.314 546.247C409.026 539.609 410.926 531.359 409.599 523.31C403.544 486.681 414.108 439.756 430.998 395.019C455.465 330.238 491.696 272.708 511.508 255.081C517.584 249.705 521.288 242.118 521.806 233.99C522.327 225.862 519.621 217.859 514.282 211.742Z" fill="#1F4EAD"/>
<path d="M314.437 169.423C305.69 171.582 308.069 182.422 315.26 178.826C315.388 178.826 357.009 164.74 384.288 208.388C387.638 213.75 392.119 206.81 390.301 203.002C384.559 190.962 359.785 158.223 314.437 169.423ZM294.658 259.7C289.497 226.318 303.389 204.19 320.668 199.706C361.805 189.025 382.155 240.091 382.155 266.953C382.155 293.164 363.581 304.708 350.342 303.539C328.096 301.57 317.622 278.14 314.388 259.893C313.599 255.447 307.471 221.225 334.94 221.017C353.644 220.879 364.16 253.482 362.934 266.044C362.132 274.254 358.307 282.828 349.649 282.061C338.106 281.043 333.874 264.337 333.29 257.737C333.162 256.688 330.798 243.744 337.086 244.84C341.419 245.593 342.481 253.719 342.63 254.253C343.233 256.203 343.644 258.651 343.892 260.914C344.157 262.832 343.724 265.034 344.49 267.171C345.244 269.651 347.4 271.047 349.267 271.213C350.795 271.347 353.711 269.775 353.81 267.369C354.007 254.576 348.689 231.814 333.701 233.153C325.272 233.905 320.828 243.622 323.227 259.287C325.566 274.542 333.456 291.317 349.048 292.694C366.19 294.212 373.093 278.472 373.093 266.609C373.093 232.788 350.382 201.748 323.538 211.04C308.122 216.376 298.769 233.275 304.034 260.836C309.488 289.409 326.278 315.626 350.636 314.915C395.228 313.613 392.129 265.784 392.129 265.784C392.129 221.834 356.768 170.983 311.418 190.784C292.724 198.948 278.102 226.478 283.621 260.063C297.624 345.266 358.769 335.479 361.626 335.034L361.838 335.061C371.596 333.638 369.6 322.682 362.462 323.912C321.976 330.894 300.121 295.052 294.658 259.7Z" fill="#1F4EAD"/>
</svg>
